<?xml version="1.0" standalone="no"?><!DOCTYPE svg PUBLIC "-//W3C//DTD SVG 1.1//EN" "http://www.w3.org/Graphics/SVG/1.1/DTD/svg11.dtd"><svg t="1484454921332" class="icon" style="" viewBox="0 0 1024 1024" version="1.1" xmlns="http://www.w3.org/2000/svg" p-id="5264" xmlns:xlink="http://www.w3.org/1999/xlink" width="200" height="200"><defs><style type="text/css"></style></defs><path d="M537.276686 461.516212c-44.118823 0-27.568892 55.121412-82.708723 66.143443l-16.538675 5.509481c-27.568892 5.511527-33.089629 5.511527-33.089629 27.561729 0 22.040992 11.030218 27.552519 22.059412 27.552519l66.158792 0 0 181.879374c0 27.554566 5.520737 44.093241 33.089629 44.093241 27.568892 0 33.080419-22.050202 33.080419-44.093241l0-275.566126C559.326888 467.026716 548.305881 461.516212 537.276686 461.516212L537.276686 461.516212zM537.276686 461.516212" p-id="5265"></path><path d="M322.241168 279.636838l11.030218 0c16.538675 0 27.559683-11.012821 27.559683-27.552519L360.831069 119.815853c0-16.540721-11.021008-27.561729-27.559683-27.561729l-11.030218 0c-16.538675 0-27.568892 11.021008-27.568892 27.561729l0 137.787156C294.672276 268.624017 305.702494 279.636838 322.241168 279.636838L322.241168 279.636838zM322.241168 279.636838" p-id="5266"></path><path d="M680.634722 279.636838l11.018961 0c16.549931 0 27.568892-11.012821 27.568892-27.552519L719.222575 119.815853c0-16.540721-11.018961-27.561729-27.568892-27.561729l-11.018961 0c-16.540721 0-27.570939 11.021008-27.570939 27.561729l0 137.787156C653.063783 268.624017 669.604504 279.636838 680.634722 279.636838L680.634722 279.636838zM680.634722 279.636838" p-id="5267"></path><path d="M835.019905 158.39552l-71.678506 0 0 49.595558 71.678506 0c33.078373 0 60.649312 27.561729 60.649312 60.632939l0 55.105039L118.225635 323.729056l0-55.105039c0-33.07121 27.570939-60.632939 60.649312-60.632939l71.687716 0 0-49.595558-66.168002 0c-66.170049 0-115.787096 55.106062-115.787096 115.739001l0 534.608927c0 60.622706 49.617048 115.744117 115.787096 115.744117l656.134725 0c60.649312 0 115.787096-49.609884 115.787096-115.744117L956.316481 274.134521C950.807001 213.502605 901.178697 158.39552 835.019905 158.39552L835.019905 158.39552zM835.019905 869.367177 184.39466 869.367177c-33.080419 0-60.649312-27.559683-60.649312-60.622706L123.745349 378.849444 901.178697 378.849444l0 424.375314C901.178697 841.807495 873.609805 869.367177 835.019905 869.367177L835.019905 869.367177zM835.019905 869.367177" p-id="5268"></path><path d="M399.430178 158.39552l220.555232 0 0 49.595558L399.430178 207.991078 399.430178 158.39552 399.430178 158.39552zM399.430178 158.39552" p-id="5269"></path></svg>